
<svg version="1.1" id="Layer_1" xmlns="http://www.w3.org/2000/svg" xmlns:xlink="http://www.w3.org/1999/xlink" x="0px" y="0px"
	 viewBox="0 0 1000 1000" style="enable-background:new 0 0 1000 1000;" xml:space="preserve">
<style type="text/css">
	.st0{fill:#424245;}
	.st1{fill:#FFFFFF;}
</style>
<g>
	<path class="st0" d="M704.44,646.51c1.33-5.22,2.53-9.93,3.73-14.65c-0.25-0.09-0.5-0.19-0.76-0.28c-2.57,4.9-5.14,9.8-7.8,14.86
		c-38.81,0-77.57,0-116.77,0c2.68-15.08,5.3-29.89,7.93-44.69c-0.24-0.1-0.47-0.2-0.71-0.3c-8.13,14.9-15.83,30.03-24.06,45.23
		c-35.72,0-71.47,0-107.44,0c-2.54,8.35-5.01,16.45-7.53,24.73c-27.27,0-54.51,0-82.17,0c2.31-8.05,4.56-15.93,6.94-24.25
		c-54.36-0.17-108.32-0.33-162.27-0.5c-0.1-0.26-0.2-0.52-0.31-0.79c63.65-65.8,127.3-131.6,190.88-197.32
		c-0.12-0.35-0.14-0.49-0.21-0.58c-0.07-0.08-0.19-0.15-0.3-0.17c-0.25-0.05-0.5-0.08-0.75-0.09c-0.63-0.01-1.27-0.01-1.9-0.01
		c-54.83,0-109.65-0.01-164.48-0.02c-0.25,0-0.5-0.04-0.75-0.08c-0.12-0.02-0.24-0.08-0.8-0.29c0.81-3,1.64-6.07,2.68-9.9
		c-8.04,6.47-16.68,9.6-25.85,11.41c-12.97,2.56-25.97,2.97-38.86-0.4c-3.52-0.92-7-2.33-10.19-4.07
		c-8.27-4.52-13.21-11.65-15.18-20.84c-0.42-1.96-0.76-3.94-1.19-6.17c-10.17-0.8-20.26-1.59-30.82-2.43
		c-3.41,10.6-6.81,21.16-10.26,31.87c-18.31,0-36.55,0-55.25,0c12.59-39.37,25.12-78.56,37.71-117.92c79.41,0,158.67,0,238.51,0
		c-7.61,24.46-15.61,48.53-23.27,72.94c10.42,0,20.41,0,30.66,0c7.71-24.34,15.39-48.59,23.11-72.96c17.95,0,35.65,0,53.89,0
		c-7.72,24.47-15.33,48.6-23.07,73.13c14.45,0,28.38,0,42.92,0c-3.51,11.12-6.89,21.81-10.38,32.83c13.24,0,26.11,0,39.21,0
		c6.07-19.02,12.11-37.93,18.29-57.29c-9.26,0-17.98,0-27.29,0c1.23-5.97,3.44-11.18,5.08-16.54c1.64-5.33,3.46-10.61,5.21-15.9
		c1.78-5.4,3.59-10.79,5.39-16.21c65.56,0,130.85,0,196.41,0c0,7.51,0,14.79,0,23.01c1.01-1.36,1.56-1.96,1.95-2.65
		c3.32-5.85,6.71-11.66,9.86-17.59c1.15-2.17,2.44-3.06,5-3.06c46.2,0.08,92.39,0.06,138.59,0.07c0.99,0,1.97,0.13,3.47,0.24
		c-4.87,15.09-9.64,29.88-14.48,44.88c-2.19,0.1-4.32,0.2-6.47,0.29c-3.03,9.18-6.04,18.28-9.19,27.81c3.06,0,5.78,0,9.08,0
		c-3.42,11.18-6.7,21.88-10.15,33.13c1.81,0,3.16,0,4.52,0c19.16-0.08,38.32-0.44,57.48-0.15c14.5,0.22,28.91,2.12,42.69,6.79
		c24.38,8.27,41.76,24.1,49.99,48.88c4.93,14.86,6.24,30.24,4.65,45.85c-1.48,14.55-4,28.88-9.05,42.67
		c-3.73,10.18-8.52,19.82-14.71,28.71c-4.62,6.62-10.76,11.8-17.21,16.56c-13.21,9.77-28.21,15.31-44.23,18.35
		c-13.13,2.5-26.42,3.61-39.74,3.7c-38.96,0.26-77.92,0.22-116.88,0.29C706.67,646.68,705.8,646.59,704.44,646.51z M614.44,530.82
		c0.29,0.03,0.59,0.06,0.88,0.09c-3.13,17.32-6.28,34.63-9.38,51.95c-3.11,17.41-6.45,34.78-9.41,52.64c1.98,0,3.36,0,4.74,0
		c28.94,0,57.88-0.06,86.81,0.08c3.3,0.02,4.86-1.1,6.33-3.96c16.34-31.82,32.83-63.56,49.28-95.32c0.59-1.13,1.21-2.24,1.82-3.36
		c0.24,0.11,0.47,0.22,0.71,0.33c-9.03,33.86-18.06,67.72-27.17,101.89c1.47,0.14,2.44,0.32,3.41,0.32
		c36.17-0.14,72.34-0.13,108.51-0.55c14.48-0.17,28.84-1.99,42.85-5.96c24.58-6.95,42.22-21.93,52.62-45.33
		c4.14-9.32,6.99-19.04,8.91-29.03c3-15.65,4.54-31.37,1.96-47.28c-4.38-26.98-19.34-45.16-45.05-54.48
		c-13.91-5.04-28.37-6.56-43.03-6.57c-42.14-0.04-84.28-0.01-126.41-0.01c-1.25,0-2.51,0-3.82,0
		c-10.7,19.27-21.27,38.35-31.88,57.41c-10.63,19.09-21.14,38.25-31.87,57.29c-0.3-0.12-0.59-0.23-0.89-0.35
		c7.05-37.96,14.1-75.92,21.23-114.35c-1.91,0-3.28,0-4.66,0c-19.8,0-39.6,0-59.4,0c-0.76,0-1.53,0.05-2.28-0.01
		c-1.29-0.1-2.18,0.37-2.75,1.56c-0.44,0.91-0.98,1.78-1.47,2.66c-19.16,34.48-38.32,68.97-57.49,103.45
		c-0.62,1.12-1.31,2.2-1.96,3.3c1.51-7.57,3.53-14.88,5.57-22.18c2.07-7.45,4.15-14.9,6.23-22.35c2.04-7.33,4.09-14.65,6.14-21.98
		c2.09-7.45,4.24-14.87,6.25-22.34c1.95-7.25,4.34-14.39,5.87-21.94c-29.2,0-57.85,0-86.72,0c-4.64,13.55-9.26,27.02-14.06,41.02
		c11.89,0,23.1,0,34.78,0c-14.35,49.46-28.56,98.46-42.94,148.02c1.87,0,3.11,0,4.34,0c28.05,0,56.1-0.06,84.15,0.08
		c3.2,0.02,4.65-1.18,6.04-3.83c17.07-32.58,34.26-65.1,51.41-97.64C613.24,533.01,613.84,531.92,614.44,530.82z M442.48,659.99
		c13.1-43.56,26.15-86.95,39.28-130.57c-18.74,0-36.98,0-55.3,0c-0.6,1.52-1.17,2.92-1.7,4.35c-6.92,18.66-13.83,37.33-20.75,55.98
		c-1.14,3.06-1.16,3.09-4.28,3.1c-13.32,0.02-26.65,0.01-39.97-0.01c-0.9,0-1.79-0.23-3.28-0.44
		c43.95-48.8,87.44-97.09,131.33-145.84c-1.28-0.16-1.75-0.26-2.22-0.26c-20.43-0.01-40.86,0.02-61.29-0.06
		c-2.07-0.01-3.23,1.02-4.49,2.32c-9.23,9.61-18.49,19.19-27.75,28.77c-49.62,51.39-99.25,102.78-148.87,154.17
		c-1.01,1.05-1.99,2.14-2.98,3.21c0.11,0.26,0.21,0.53,0.32,0.79c1.35,0,2.69,0,4.04,0c24.74,0,49.49,0,74.23,0
		c22.59,0,45.17,0,67.76,0.01c1.43,0,2.86,0.14,4.51,0.22c-2.13,8.42-4.91,16.1-6.77,24.25
		C403.86,659.99,422.88,659.99,442.48,659.99z M650.65,340.6c-5.75-0.71-34.49-0.48-37.39,0.28c-9.85,31.37-19.74,62.86-29.71,94.6
		c9.59,0,18.55,0,27.62,0c3.01-9.33,6.12-18.45,8.88-27.67c2.74-9.18,5.12-18.46,7.66-27.7c-0.43,18.48-1.67,36.9-2.1,55.59
		c6.37,0,12.21-0.19,18.02,0.07c3.18,0.14,4.96-0.83,6.58-3.68c8.96-15.77,18.16-31.4,27.28-47.08c0.69-1.18,1.41-2.35,2.12-3.52
		c-6.99,17.54-11.64,35.79-17.62,54.15c9.69,0.09,18.87,0.08,28.01,0.02c10.05-31.99,19.94-63.49,29.97-95.42c-1.67,0-2.67,0-3.67,0
		c-10.03,0-20.05,0.1-30.08-0.07c-2.67-0.05-4.06,0.92-5.37,3.12c-9.85,16.57-19.82,33.08-29.77,49.6
		c-0.62,1.03-1.32,2.01-1.98,3.02c-0.23-0.07-0.47-0.14-0.7-0.21C649.15,377.41,649.9,359.11,650.65,340.6z M237.37,340.42
		c-0.48,1.34-0.95,2.51-1.33,3.7c-6.02,18.82-11.98,37.67-18.12,56.46c-0.93,2.83-2.39,5.64-4.22,7.99
		c-3.51,4.52-8.37,6.97-14.14,7.05c-7.47,0.11-11.7-5.34-9.97-12.61c0.26-1.11,0.67-2.18,1.01-3.27
		c5.75-18.64,11.5-37.29,17.24-55.94c0.32-1.04,0.54-2.12,0.87-3.41c-9.96,0-19.56,0-29.26,0c-0.29,0.65-0.58,1.2-0.77,1.79
		c-6.03,18.69-12.13,37.36-18.03,56.09c-1.94,6.18-2.95,12.57-2.67,19.12c0.25,5.79,2.65,10.49,6.81,14.38
		c3.33,3.11,7.36,4.91,11.72,5.99c9.51,2.36,19.14,2.32,28.7,0.69c13.24-2.25,24.87-7.66,33.62-18.34
		c4.9-5.98,8.31-12.71,10.63-20.03c5.9-18.6,11.77-37.2,17.64-55.81c0.37-1.18,0.65-2.39,1.04-3.85
		C257.74,340.42,247.75,340.42,237.37,340.42z M787.56,375.02c-12.45,0-24.18,0-36.5,0c1.34-4.37,2.51-8.18,3.81-12.39
		c14.53,0,28.93,0,43.32,0c2.52-7.61,4.9-14.79,7.35-22.19c-25.14,0-49.83,0-74.44,0c-3.2,7.4-29.8,92.96-29.79,95.77
		c25.21,0,50.42,0,75.72,0c2.45-7.53,5.08-14.85,7.33-22.66c-15.35-0.05-30.11,0.02-45.23-0.05c1.7-5.68,3.22-10.75,4.8-16
		c12.11,0,24.01,0,36.13,0C782.51,390.17,784.9,383,787.56,375.02z M65.36,435.51c10.82,0,21.18,0,31.7,0
		c3.3-10.73,6.57-21.36,9.91-32.19c11.29,0,22.29,0,33.4,0c2.49-7.84,4.89-15.42,7.44-23.44c-11.38,0-22.25,0-33.74,0
		c2.27-6.8,4.37-13.1,6.57-19.7c14.03,0,27.8,0,41.62,0c2.04-6.74,3.97-13.12,5.98-19.77c-24.43,0-48.38,0-72.66,0
		C85.55,371.99,75.51,403.6,65.36,435.51z M524.07,366.12c9.18,0,18.14,0,27.29,0c2.73-8.66,5.38-17.06,8.09-25.66
		c-28.67,0-56.9,0-85.34,0c-2.53,8.56-5.56,16.83-7.91,25.86c9.13,0,17.67,0,26.71,0c-7.29,23.3-14.43,46.1-21.67,69.2
		c10.54,0,20.64,0,31.02,0C509.49,412.53,516.7,389.59,524.07,366.12z M414.82,413.45c-14.5,0-28.5,0-42.95,0
		c7.76-24.59,15.37-48.69,23.03-72.96c-10.3,0-20.14,0-30.02,0c-10.19,31.94-20.31,63.67-30.53,95.69c24.73,0,49.02,0,73.39,0
		C410.09,428.66,412.37,421.31,414.82,413.45z M280.26,340.41c-10.07,31.91-20.1,63.73-30.22,95.8c24.7,0,48.77,0,73.02,0
		c2.27-7.54,4.93-14.83,6.94-22.82c-14.48,0-28.37,0-42.75,0c7.74-24.54,15.34-48.63,23.03-72.98
		C299.95,340.41,290.22,340.41,280.26,340.41z M571.91,435.53c9.56-30.37,19.07-60.58,28.56-90.79c0.38-1.2,0.61-2.44,0.9-3.67
		c0.03-0.11-0.02-0.26-0.08-0.37c-0.05-0.09-0.17-0.15-0.36-0.31c-9.89,0-19.88,0-30.16,0c-10.06,31.65-20.1,63.24-30.23,95.13
		C551.15,435.53,561.27,435.53,571.91,435.53z M495.02,497.54c-0.87-0.16-1.24-0.29-1.61-0.29c-10.51-0.02-21.01,0.03-31.52-0.07
		c-1.79-0.02-2.78,0.85-3.83,1.99c-5,5.38-10.02,10.73-15.02,16.11c-0.55,0.59-0.97,1.29-1.69,2.25c16.14,0,31.76,0,47.58,0
		C490.95,510.89,492.93,504.39,495.02,497.54z M528.9,434.89c5.99-19.12,11.91-38.02,17.92-57.21c-5.08,0-9.59,0-14.31,0
		c-5.85,19.05-11.79,37.91-17.54,57.21C519.88,434.89,524.15,434.89,528.9,434.89z M402.51,560.54c-0.2-0.15-0.4-0.3-0.61-0.46
		c-6.37,6.91-12.81,13.77-19.65,21.3c4.67,0,8.41,0,12.45,0C397.3,574.45,399.91,567.49,402.51,560.54z"/>
	<path class="st1" d="M614.44,530.82c-0.6,1.1-1.21,2.19-1.79,3.3c-17.16,32.54-34.34,65.06-51.41,97.64
		c-1.39,2.65-2.84,3.85-6.04,3.83c-28.05-0.15-56.1-0.08-84.15-0.08c-1.24,0-2.47,0-4.34,0c14.38-49.56,28.59-98.56,42.94-148.02
		c-11.68,0-22.9,0-34.78,0c4.8-14,9.41-27.46,14.06-41.02c28.87,0,57.52,0,86.72,0c-1.53,7.55-3.92,14.69-5.87,21.94
		c-2.01,7.47-4.17,14.89-6.25,22.34c-2.05,7.33-4.09,14.65-6.14,21.98c-2.08,7.45-4.15,14.9-6.23,22.35
		c-2.03,7.31-4.06,14.62-5.57,22.18c0.65-1.1,1.34-2.18,1.96-3.3c19.17-34.48,38.33-68.97,57.49-103.45
		c0.49-0.89,1.04-1.75,1.47-2.66c0.57-1.19,1.46-1.66,2.75-1.56c0.76,0.06,1.52,0.01,2.28,0.01c19.8,0,39.6,0,59.4,0
		c1.37,0,2.74,0,4.66,0c-7.14,38.43-14.18,76.39-21.23,114.35c0.3,0.12,0.59,0.23,0.89,0.35c10.73-19.04,21.24-38.2,31.87-57.29
		c10.61-19.06,21.18-38.14,31.88-57.41c1.31,0,2.57,0,3.82,0c42.14,0,84.28-0.02,126.41,0.01c14.67,0.01,29.12,1.53,43.03,6.57
		c25.71,9.32,40.67,27.5,45.05,54.48c2.58,15.91,1.03,31.63-1.96,47.28c-1.91,9.99-4.76,19.71-8.91,29.03
		c-10.4,23.4-28.04,38.37-52.62,45.33c-14.02,3.97-28.38,5.79-42.85,5.96c-36.17,0.42-72.34,0.4-108.51,0.55
		c-0.97,0-1.94-0.17-3.41-0.32c9.11-34.17,18.14-68.03,27.17-101.89c-0.24-0.11-0.47-0.22-0.71-0.33c-0.61,1.12-1.23,2.23-1.82,3.36
		c-16.45,31.76-32.94,63.5-49.28,95.32c-1.47,2.87-3.04,3.98-6.33,3.96c-28.94-0.14-57.88-0.08-86.81-0.08c-1.38,0-2.76,0-4.74,0
		c2.96-17.86,6.31-35.23,9.41-52.64c3.09-17.32,6.25-34.63,9.38-51.95C615.03,530.88,614.74,530.85,614.44,530.82z M791.05,592.93
		c3.69,0,7.1,0.1,10.49-0.02c11.14-0.39,22.31-0.42,33.31-2.75c18.14-3.84,31.06-13.89,37.38-31.56c4.8-13.42,6.72-27.3,4.85-41.53
		c-1.87-14.14-9.61-23.39-23.4-27.36c-6.63-1.91-13.44-2.49-20.32-2.39c-20.42,0.31-40.83,0.64-61.25,0.87
		c-2.27,0.03-3.65,0.63-4.76,2.77c-6,11.6-12.17,23.1-18.26,34.65c-0.39,0.74-0.6,1.57-1.01,2.65c19.27,0.47,38.21,0.93,57.56,1.41
		C800.7,551.1,795.9,571.91,791.05,592.93z"/>
	<path class="st1" d="M442.48,659.99c-19.61,0-38.63,0-58.16,0c1.86-8.15,4.64-15.84,6.77-24.25c-1.64-0.08-3.07-0.22-4.51-0.22
		c-22.59-0.01-45.17-0.01-67.76-0.01c-24.74,0-49.49,0-74.23,0c-1.35,0-2.69,0-4.04,0c-0.11-0.26-0.21-0.53-0.32-0.79
		c0.99-1.07,1.96-2.16,2.98-3.21c49.62-51.39,99.25-102.78,148.87-154.17c9.25-9.58,18.51-19.16,27.75-28.77
		c1.25-1.3,2.42-2.33,4.49-2.32c20.43,0.08,40.86,0.05,61.29,0.06c0.47,0,0.94,0.11,2.22,0.26
		c-43.9,48.74-87.39,97.04-131.33,145.84c1.48,0.2,2.38,0.43,3.28,0.44c13.32,0.02,26.65,0.03,39.97,0.01c3.12,0,3.15-0.04,4.28-3.1
		c6.92-18.66,13.83-37.32,20.75-55.98c0.53-1.42,1.1-2.83,1.7-4.35c18.32,0,36.56,0,55.3,0
		C468.64,573.04,455.59,616.43,442.48,659.99z"/>
	<path class="st1" d="M650.65,340.6c-0.75,18.51-1.5,36.81-2.25,55.11c0.23,0.07,0.47,0.14,0.7,0.21c0.66-1.01,1.36-1.99,1.98-3.02
		c9.94-16.52,19.92-33.02,29.77-49.6c1.31-2.21,2.7-3.17,5.37-3.12c10.02,0.17,20.05,0.07,30.08,0.07c1,0,1.99,0,3.67,0
		c-10.03,31.94-19.92,63.43-29.97,95.42c-9.14,0.06-18.31,0.07-28.01-0.02c5.98-18.36,10.63-36.6,17.62-54.15
		c-0.71,1.17-1.43,2.34-2.12,3.52c-9.12,15.68-18.32,31.31-27.28,47.08c-1.62,2.85-3.4,3.82-6.58,3.68
		c-5.81-0.26-11.65-0.07-18.02-0.07c0.43-18.7,1.67-37.12,2.1-55.59c-2.54,9.24-4.92,18.52-7.66,27.7
		c-2.76,9.22-5.87,18.34-8.88,27.67c-9.07,0-18.03,0-27.62,0c9.97-31.75,19.86-63.23,29.71-94.6
		C616.16,340.12,644.9,339.89,650.65,340.6z"/>
	<path class="st1" d="M237.37,340.42c10.38,0,20.37,0,30.75,0c-0.39,1.46-0.67,2.67-1.04,3.85c-5.87,18.61-11.73,37.22-17.64,55.81
		c-2.32,7.31-5.73,14.04-10.63,20.03c-8.74,10.68-20.38,16.09-33.62,18.34c-9.56,1.63-19.19,1.67-28.7-0.69
		c-4.36-1.08-8.39-2.88-11.72-5.99c-4.16-3.89-6.56-8.59-6.81-14.38c-0.28-6.55,0.73-12.94,2.67-19.12
		c5.9-18.73,12-37.4,18.03-56.09c0.19-0.58,0.49-1.13,0.77-1.79c9.7,0,19.3,0,29.26,0c-0.33,1.29-0.55,2.36-0.87,3.41
		c-5.74,18.65-11.49,37.29-17.24,55.94c-0.34,1.09-0.75,2.16-1.01,3.27c-1.72,7.27,2.5,12.72,9.97,12.61
		c5.77-0.09,10.64-2.54,14.14-7.05c1.82-2.35,3.29-5.16,4.22-7.99c6.14-18.78,12.1-37.63,18.12-56.46
		C236.42,342.93,236.89,341.76,237.37,340.42z"/>
	<path class="st1" d="M787.56,375.02c-2.66,7.98-5.05,15.15-7.5,22.49c-12.12,0-24.02,0-36.13,0c-1.57,5.25-3.09,10.32-4.8,16
		c15.13,0.07,29.88-0.01,45.23,0.05c-2.25,7.81-4.88,15.13-7.33,22.66c-25.3,0-50.51,0-75.72,0c-0.01-2.81,26.59-88.37,29.79-95.77
		c24.61,0,49.31,0,74.44,0c-2.45,7.4-4.83,14.58-7.35,22.19c-14.39,0-28.8,0-43.32,0c-1.29,4.21-2.46,8.02-3.81,12.39
		C763.38,375.02,775.11,375.02,787.56,375.02z"/>
	<path class="st1" d="M65.36,435.51c10.14-31.92,20.19-63.52,30.23-95.11c24.28,0,48.23,0,72.66,0c-2.01,6.66-3.94,13.03-5.98,19.77
		c-13.82,0-27.59,0-41.62,0c-2.2,6.6-4.31,12.91-6.57,19.7c11.49,0,22.36,0,33.74,0c-2.55,8.03-4.95,15.6-7.44,23.44
		c-11.11,0-22.11,0-33.4,0c-3.33,10.84-6.6,21.46-9.91,32.19C86.54,435.51,76.19,435.51,65.36,435.51z"/>
	<path class="st1" d="M524.07,366.12c-7.37,23.47-14.58,46.41-21.8,69.4c-10.38,0-20.49,0-31.02,0c7.23-23.1,14.37-45.9,21.67-69.2
		c-9.04,0-17.59,0-26.71,0c2.35-9.03,5.38-17.3,7.91-25.86c28.44,0,56.67,0,85.34,0c-2.71,8.61-5.36,17.01-8.09,25.66
		C542.21,366.12,533.25,366.12,524.07,366.12z"/>
	<path class="st1" d="M414.82,413.45c-2.45,7.86-4.74,15.21-7.08,22.73c-24.37,0-48.66,0-73.39,0
		c10.22-32.02,20.34-63.74,30.53-95.69c9.88,0,19.72,0,30.02,0c-7.66,24.27-15.27,48.36-23.03,72.96
		C386.32,413.45,400.32,413.45,414.82,413.45z"/>
	<path class="st1" d="M280.26,340.41c9.96,0,19.7,0,30.01,0c-7.68,24.35-15.29,48.44-23.03,72.98c14.38,0,28.27,0,42.75,0
		c-2.01,7.99-4.67,15.28-6.94,22.82c-24.25,0-48.32,0-73.02,0C260.15,404.14,270.19,372.32,280.26,340.41z"/>
	<path class="st1" d="M571.91,435.53c-10.64,0-20.76,0-31.39,0c10.14-31.9,20.17-63.49,30.23-95.13c10.29,0,20.27,0,30.16,0
		c0.19,0.16,0.31,0.22,0.36,0.31c0.06,0.11,0.11,0.25,0.08,0.37c-0.29,1.23-0.52,2.47-0.9,3.67
		C590.97,374.96,581.46,405.16,571.91,435.53z"/>
	<path class="st0" d="M791.05,592.93c4.85-21.02,9.65-41.83,14.59-63.26c-19.35-0.47-38.29-0.94-57.56-1.41
		c0.4-1.07,0.62-1.91,1.01-2.65c6.09-11.55,12.26-23.05,18.26-34.65c1.11-2.14,2.49-2.74,4.76-2.77
		c20.42-0.23,40.83-0.56,61.25-0.87c6.88-0.1,13.69,0.48,20.32,2.39c13.79,3.96,21.54,13.21,23.4,27.36
		c1.88,14.23-0.04,28.11-4.85,41.53c-6.32,17.66-19.24,27.71-37.38,31.56c-11,2.33-22.16,2.36-33.31,2.75
		C798.15,593.03,794.75,592.93,791.05,592.93z M806.03,580.82c11.44,0,22.1-0.99,32.51-4.13c10.24-3.09,17.37-9.63,21.6-19.4
		c4.83-11.15,6.52-22.93,6-34.93c-0.54-12.57-6.72-19.47-19.02-22.21c-3.32-0.74-6.77-1.36-10.15-1.32
		c-19.52,0.24-39.05,0.72-58.57,1.05c-1.93,0.03-2.94,0.83-3.77,2.5c-2.09,4.2-4.36,8.3-6.53,12.46c-0.33,0.63-0.51,1.32-0.95,2.51
		c17.83,0.36,35.26,0.7,53.16,1.06C815.52,539.37,810.84,559.82,806.03,580.82z"/>
</g>
</svg>
