
<svg version="1.1" id="Layer_1" xmlns="http://www.w3.org/2000/svg" xmlns:xlink="http://www.w3.org/1999/xlink" x="0px" y="0px"
	 viewBox="0 0 1000 1000" style="enable-background:new 0 0 1000 1000;" xml:space="preserve">

<path fill="#424245" class="st0" d="M843.27,76.41C829.54,61.7,810.62,53.6,789.98,53.6h-56.73c-41.81,0-81.71,33.5-88.94,74.68l-3.58,20.37
	c-3.6,20.49,1.24,39.9,13.63,54.66c12.39,14.75,30.67,22.88,51.47,22.88h73.28c10.17,0,20-2.03,29.14-5.63l-7.79,66.54
	c-7.5-3.15-15.73-4.83-24.38-4.83h-83.61c-35.82,0-71,28.51-78.43,63.54L540.13,694.3l-348.78-25.06
	c-18.85-1.35-34.58,5.04-44.34,17.58c-9.14,11.75-11.81,27.51-7.53,44.38l40.55,159.66c8.79,34.59,44.97,62.74,80.66,62.74h292.4
	h4.46h148.84c36.16,0,68.69-29.26,72.51-65.23l57.21-539.4c0.33-3.08,0.36-6.12,0.26-9.13l19.58-167.27
	c2.76-7.2,4.52-14.86,5.07-22.8l1.3-18.62C863.76,110.56,856.99,91.12,843.27,76.41z"/>
</svg>
