
<svg version="1.1" id="Layer_1" xmlns="http://www.w3.org/2000/svg" xmlns:xlink="http://www.w3.org/1999/xlink" x="0px" y="0px"
	 viewBox="0 0 1000 1000" style="enable-background:new 0 0 1000 1000;" xml:space="preserve">
<style type="text/css">
	.st0{fill-rule:evenodd;clip-rule:evenodd;fill:#424245;}
	.st1{fill-rule:evenodd;clip-rule:evenodd;fill:#F4E140;stroke:#424245;stroke-width:6.6326;stroke-miterlimit:2.6131;}
	.st2{fill:none;stroke:#424245;stroke-width:6.6326;stroke-miterlimit:2.6131;}
	.st3{fill:#F4E140;stroke:#424245;stroke-width:4.4067;stroke-miterlimit:2.6131;}
</style>
<g>
	<g>
		<polygon class="st0" points="118.19,209.99 154.86,209.99 154.86,216.95 125.16,216.95 125.16,303.58 153.73,303.58 
			153.73,310.55 125.16,310.55 125.16,405.95 154.71,405.95 154.71,412.9 118.19,412.9 118.19,209.99 		"/>
		<path class="st1" d="M353.73,424.93c0,80.74,64.29,142.45,143.6,142.45c79.3,0,143.59-61.71,143.59-142.45
			c0-80.74-64.29-146.18-143.59-146.18C418.03,278.75,353.73,344.19,353.73,424.93L353.73,424.93z"/>
		<line class="st2" x1="53.91" y1="423.06" x2="953.91" y2="423.06"/>
		<polygon class="st1" points="496.09,202.83 496.09,637.67 496.09,202.83 		"/>
		<path class="st0" d="M496.64,336.91c-0.62-0.01-1.25-0.05-1.87-0.05c-47.18,0-85.44,38.95-85.44,86.99c0,0.04,0,0.09,0,0.13h87.31
			V336.91L496.64,336.91z"/>
		<path class="st0" d="M495.34,510.51c0.62,0.01,1.25,0.04,1.87,0.04c47.2,0,85.43-38.94,85.43-86.97c0-0.05,0-0.09,0-0.14h-87.31
			V510.51L495.34,510.51z"/>
		<path class="st0" d="M317.77,208.87h-4.84c-11.72,0-21.24,9.51-21.24,21.25v162.73c0,11.74,9.51,21.25,21.24,21.25h4.84
			c11.74,0,21.24-9.51,21.24-21.25V230.12C339.01,218.38,329.51,208.87,317.77,208.87L317.77,208.87z M332.06,392.85
			c0,7.88-6.41,14.29-14.28,14.29h-4.84c-7.88,0-14.28-6.41-14.28-14.29V230.12c0-7.88,6.41-14.3,14.28-14.3h4.84
			c7.88,0,14.28,6.42,14.28,14.3V392.85L332.06,392.85z"/>
		<path class="st0" d="M207.9,392.85c0,7.88-6.41,14.29-14.27,14.29h-4.85c-7.88,0-14.28-6.41-14.28-14.29V209.99h-6.95v182.85
			c0,11.74,9.51,21.25,21.24,21.25h4.85c11.73,0,21.24-9.51,21.24-21.25V209.99h-6.96V392.85L207.9,392.85z"/>
		<path class="st0" d="M826.64,635.72h6.95L810.5,431.18h-12.08l-23.06,204.54h6.95l6.71-59.45h30.91L826.64,635.72L826.64,635.72z
			 M789.8,569.29l14.67-130.02l14.67,130.02H789.8L789.8,569.29z"/>
		<path class="st0" d="M872.5,431.19h-26.08v204.77h6.96V533.3h19.11c11.73,0,21.24-9.51,21.24-21.25v-59.6
			C893.74,440.72,884.23,431.19,872.5,431.19L872.5,431.19z M886.79,512.05c0,7.88-6.41,14.3-14.29,14.3h-19.11v-88.19h19.11
			c7.88,0,14.29,6.42,14.29,14.3V512.05L886.79,512.05z"/>
		<path class="st0" d="M274.58,289.3v-58.05c0-11.74-9.51-21.25-21.23-21.25l-22.3-0.02v202.92H238V310.67h15.35
			c7.86,0,14.27,6.41,14.27,14.29v87.95h6.96v-87.95c0-7.48-3.87-14.04-9.71-17.83C270.71,303.35,274.58,296.79,274.58,289.3
			L274.58,289.3z M267.62,289.3c0,7.88-6.41,14.28-14.27,14.28H238v-86.63h15.35c7.86,0,14.27,6.42,14.27,14.3V289.3L267.62,289.3z"
			/>
		<path class="st0" d="M758.05,615.91c0,7.88-6.41,14.29-14.29,14.29h-4.86c-7.87,0-14.27-6.41-14.27-14.29V451.3
			c0-7.88,6.41-14.29,14.27-14.29h4.86c7.88,0,14.29,6.41,14.29,14.29v33.01h6.95V451.3c0-11.73-9.51-21.25-21.23-21.25h-4.86
			c-11.72,0-21.22,9.52-21.22,21.25v164.61c0,11.74,9.5,21.25,21.22,21.25h4.86c11.72,0,21.23-9.51,21.23-21.25v-35.63h-6.95V615.91
			L758.05,615.91z"/>
		<polygon class="st0" points="699.48,431.18 699.48,599.52 700.28,626.34 666.62,431.18 654.9,431.18 654.9,635.97 661.85,635.97 
			661.85,467.1 661.06,440.81 694.71,635.97 706.43,635.97 706.43,431.18 699.48,431.18 		"/>
	</g>
	<g>
		<polygon class="st3" points="119.77,651.36 138.86,702.57 193.46,704.9 150.66,738.87 165.31,791.52 119.77,761.31 74.23,791.52 
			88.89,738.87 46.09,704.9 100.68,702.57 		"/>
		<polygon class="st3" points="307.93,651.36 327.02,702.57 381.62,704.9 338.81,738.87 353.47,791.52 307.93,761.31 262.39,791.52 
			277.04,738.87 234.24,704.9 288.84,702.57 		"/>
		<polygon class="st3" points="496.09,651.36 515.17,702.57 569.77,704.9 526.97,738.87 541.63,791.52 496.09,761.31 450.55,791.52 
			465.2,738.87 422.4,704.9 477,702.57 		"/>
		<polygon class="st3" points="684.24,651.36 703.33,702.57 757.93,704.9 715.13,738.87 729.78,791.52 684.24,761.31 638.7,791.52 
			653.36,738.87 610.56,704.9 665.16,702.57 		"/>
		<polygon class="st3" points="872.4,651.36 891.49,702.57 946.09,704.9 903.28,738.87 917.94,791.52 872.4,761.31 826.86,791.52 
			841.51,738.87 798.71,704.9 853.31,702.57 		"/>
	</g>
</g>
</svg>
