
<svg version="1.1" id="Layer_1" xmlns="http://www.w3.org/2000/svg" xmlns:xlink="http://www.w3.org/1999/xlink" x="0px" y="0px"
	 viewBox="0 0 1000 1000" style="enable-background:new 0 0 1000 1000;" xml:space="preserve">
<style type="text/css">
	.st0{fill:#424245;}
</style>
<g>
	<path class="st0" d="M804.25,658.12c14.37-9.71,23.84-26.15,23.84-44.75c0-29.76-24.21-53.97-53.97-53.97h-47.02
		c-11.1,0-20.09,9-20.09,20.09c0,24.91,0,90.41,0,112.93c0,11.1,8.99,20.09,20.09,20.09c11.09,0,20.09-8.99,20.09-20.09v-25.08
		h11.39l34.46,38.49c7.4,8.26,20.1,8.97,28.36,1.57c8.27-7.4,8.97-20.1,1.57-28.36L804.25,658.12z M774.12,627.16h-26.93v-27.59
		h26.93c7.61,0,13.79,6.19,13.79,13.79S781.73,627.16,774.12,627.16z"/>
	<path class="st0" d="M239.8,648.86l17.33-3.18c22.12-4.05,38.18-23.37,38.18-45.93c0-25.75-20.88-46.69-46.54-46.69H192
		c-11.09,0-20.09,8.99-20.09,20.09s8.99,20.09,20.09,20.09h56.78c3.51,0,6.36,2.92,6.36,6.52c0,3.16-2.2,5.86-5.24,6.42l-17.33,3.18
		c-35.14,6.44-60.65,37.15-60.65,73.03c0,11.09,8.99,20.09,20.09,20.09h83.23c11.09,0,20.09-8.99,20.09-20.09
		s-8.99-20.09-20.09-20.09h-56.65C223.53,655.42,231.01,650.47,239.8,648.86z"/>
	<path class="st0" d="M203.29,87.82c5.77,0,4.55,0,10.24,0c0,11.17,0,80.19,0,89.75c0,11.1,8.99,20.09,20.09,20.09
		c11.09,0,20.09-8.99,20.09-20.09V67.73c0-11.1-9-20.09-20.09-20.09h-30.33c-11.1,0-20.09,8.99-20.09,20.09
		C183.2,78.82,192.18,87.82,203.29,87.82z"/>
	<path class="st0" d="M514.89,156.86h-55.92c-11.09,0-20.09,8.99-20.09,20.09c0,11.09,8.99,20.09,20.09,20.09h55.92
		c38.37,0,60.8-43.47,38.7-74.7c22.06-31.18-0.27-74.7-38.7-74.7h-55.92c-11.09,0-20.09,8.99-20.09,20.09s8.99,20.09,20.09,20.09
		h55.92c3.98,0,7.22,3.24,7.22,7.22c0,3.98-3.24,7.22-7.22,7.22c-17.96,0-25.81,0-34.07,0c-11.09,0-20.09,8.99-20.09,20.09
		s8.99,20.09,20.09,20.09c8.25,0,16.11,0,34.07,0c3.98,0,7.22,3.24,7.22,7.22S518.87,156.86,514.89,156.86z"/>
	<path class="st0" d="M549,615.84h-11.62v-38.98c0-11.09-8.99-20.09-20.09-20.09c-11.09,0-20.09,8.99-20.09,20.09v38.98h-26.12
		v-38.98c0-11.09-8.99-20.09-20.09-20.09c-11.09,0-20.09,8.99-20.09,20.09v59.07c0,11.09,8.99,20.09,20.09,20.09h46.2v30.07
		c0,11.09,8.99,20.09,20.09,20.09c11.09,0,20.09-8.99,20.09-20.09v-30.07H549c11.09,0,20.09-8.99,20.09-20.09
		C569.08,624.83,560.09,615.84,549,615.84z"/>
	<path class="st0" d="M730.95,142.43h45.74c4.07,0,7.37,3.24,7.37,7.22c0,3.98-3.31,7.22-7.37,7.22h-45.74
		c-11.09,0-20.09,8.99-20.09,20.09c0,11.09,8.99,20.09,20.09,20.09h45.74c26.22,0,47.55-21.26,47.55-47.39
		c0-26.13-21.33-47.39-47.55-47.39h-23.14l1.7-14.44h48.9c11.09,0,20.09-8.99,20.09-20.09s-8.99-20.09-20.09-20.09h-66.76
		c-10.18,0-18.76,7.62-19.95,17.74l-6.44,54.61C709.6,131.92,718.93,142.43,730.95,142.43z"/>
	<path class="st0" d="M520.09,247.85c0-11.09-9-20.09-20.09-20.09s-20.09,9-20.09,20.09v47.53c12.97-3.1,26.99-3.15,40.17,0V247.85z
		"/>
	<path class="st0" d="M479.91,512.3c0,11.09,9,20.09,20.09,20.09c11.09,0,20.09-9,20.09-20.09v-47.53c-12.97,3.1-26.99,3.15-40.17,0
		L479.91,512.3L479.91,512.3z"/>
	<path class="st0" d="M253.12,359.99V247.85c0-11.09-8.99-20.09-20.09-20.09c-11.09,0-20.09,8.99-20.09,20.09
		c0,2.97,0,261.37,0,264.44c0,11.09,8.99,20.09,20.09,20.09c11.09,0,20.09-8.99,20.09-20.09V400.16H415.3
		c-3.1-12.97-3.15-26.99,0-40.17L253.12,359.99L253.12,359.99z"/>
	<path class="st0" d="M746.88,400.16v112.13c0,11.09,8.99,20.09,20.09,20.09s20.09-8.99,20.09-20.09c0-2.97,0-261.37,0-264.44
		c0-11.09-8.99-20.09-20.09-20.09s-20.09,8.99-20.09,20.09v112.13H584.7c3.1,12.97,3.15,26.99,0,40.17L746.88,400.16L746.88,400.16z
		"/>
	<path class="st0" d="M546.87,380.07c0-25.85-21.02-46.87-46.87-46.87c-25.83,0-46.87,21.01-46.87,46.87
		c0,25.85,21.02,46.87,46.87,46.87C525.83,426.94,546.87,405.94,546.87,380.07z"/>
</g>
<g>
	<path class="st0" d="M196.02,828.34l-9.12,27.63h-11.73l29.84-87.84h13.68l29.97,87.84h-12.12l-9.38-27.63H196.02z M224.82,819.48
		l-8.6-25.28c-1.96-5.73-3.26-10.95-4.56-16.03h-0.26c-1.3,5.21-2.74,10.56-4.43,15.9l-8.6,25.41H224.82z"/>
	<path class="st0" d="M269.26,768.13v52c0,19.68,8.73,28.02,20.46,28.02c13.03,0,21.37-8.6,21.37-28.02v-52h11.47v51.22
		c0,26.98-14.21,38.06-33.23,38.06c-17.99,0-31.54-10.3-31.54-37.53v-51.74H269.26z"/>
	<path class="st0" d="M358.92,777.77h-26.72v-9.64h65.03v9.64h-26.85v78.2h-11.47V777.77z"/>
	<path class="st0" d="M478.56,811.14c0,30.24-18.38,46.27-40.79,46.27c-23.2,0-39.49-17.98-39.49-44.57
		c0-27.89,17.33-46.14,40.79-46.14C463.05,766.7,478.56,785.07,478.56,811.14z M410.4,812.57c0,18.77,10.17,35.58,28.02,35.58
		c17.98,0,28.15-16.55,28.15-36.49c0-17.46-9.12-35.71-28.02-35.71C419.79,775.95,410.4,793.28,410.4,812.57z"/>
	<path class="st0" d="M567.31,817.39c-0.65-12.25-1.43-26.98-1.3-37.92h-0.39c-3,10.3-6.65,21.24-11.08,33.36l-15.51,42.62h-8.6
		l-14.21-41.83c-4.17-12.38-7.69-23.72-10.17-34.15h-0.26c-0.26,10.95-0.91,25.67-1.69,38.84l-2.35,37.66h-10.82l6.13-87.84h14.47
		l14.99,42.49c3.65,10.82,6.65,20.46,8.86,29.58h0.39c2.22-8.86,5.34-18.51,9.25-29.58l15.64-42.49h14.47l5.47,87.84h-11.08
		L567.31,817.39z"/>
	<path class="st0" d="M610.97,828.34l-9.12,27.63h-11.73l29.84-87.84h13.68l29.97,87.84H651.5l-9.38-27.63H610.97z M639.77,819.48
		l-8.6-25.28c-1.96-5.73-3.26-10.95-4.56-16.03h-0.26c-1.3,5.21-2.74,10.56-4.43,15.9l-8.6,25.41H639.77z"/>
	<path class="st0" d="M683.17,777.77h-26.72v-9.64h65.03v9.64h-26.85v78.2h-11.47V777.77z"/>
	<path class="st0" d="M742.6,768.13v87.84h-11.34v-87.84H742.6z"/>
	<path class="st0" d="M823.79,853.1c-4.17,2.09-12.51,4.17-23.2,4.17c-24.76,0-43.4-15.64-43.4-44.44
		c0-27.5,18.64-46.14,45.88-46.14c10.95,0,17.85,2.35,20.85,3.91l-2.74,9.25c-4.3-2.09-10.43-3.65-17.72-3.65
		c-20.59,0-34.28,13.16-34.28,36.23c0,21.5,12.38,35.32,33.75,35.32c6.91,0,13.95-1.43,18.51-3.65L823.79,853.1z"/>
</g>
</svg>
