<?xml version="1.0" encoding="utf-8"?>
<!-- Generator: Adobe Illustrator 23.0.1, SVG Export Plug-In . SVG Version: 6.00 Build 0)  -->
<svg version="1.1" id="Слой_1" xmlns="http://www.w3.org/2000/svg" xmlns:xlink="http://www.w3.org/1999/xlink" x="0px" y="0px"
	 viewBox="0 0 253.3 187.7" style="enable-background:new 0 0 253.3 187.7;" xml:space="preserve">
<style type="text/css">
	.st0{fill:#D3964D;}
	.st1{font-family:'Arial';}
	.st2{font-size:31px;}
	.st3{letter-spacing:1;}
</style>
<title>tmw svg</title>
<g>
	<g id="Слой_2-2">
		<path class="st0" d="M1.2,4.6L84.6,88l83.5-83.4h-41.7L84.7,46.3L43,4.6C43,4.6,2.2,3.7,1.2,4.6z"/>
		<path class="st0" d="M2.3,45.2v39.6l39.5,43.9V87C41.9,87,1.6,44.6,2.3,45.2z"/>
		<path class="st0" d="M251.6,128.3l-83.5-83.5l-83.4,83.4h41.7l41.7-41.6l41.7,41.7C209.9,128.3,250.7,129.2,251.6,128.3z"/>
		<path class="st0" d="M250.5,87.7V48.1L211,4.2v41.7C211,45.9,251.2,88.4,250.5,87.7z"/>
		<text transform="matrix(1 0 0 1 5.1938 183.547)" class="st0 st1 st2 st3">THE MEN WANT</text>
		<text transform="matrix(1 0 0 1 259.1215 183.547)" class="st0 st1 st3" style="font-size:30.74px;">  </text>
	</g>
</g>
</svg>
